<?xml version="1.0" encoding="utf-8"?>
<!-- Generator: Adobe Illustrator 26.0.1, SVG Export Plug-In . SVG Version: 6.00 Build 0)  -->
<svg version="1.1"
	 id="Livello_1" xmlns:cc="http://creativecommons.org/ns#" xmlns:dc="http://purl.org/dc/elements/1.1/" xmlns:rdf="http://www.w3.org/1999/02/22-rdf-syntax-ns#"
	 xmlns="http://www.w3.org/2000/svg" xmlns:xlink="http://www.w3.org/1999/xlink" x="0px" y="0px" viewBox="0 0 264 50.1"
	 style="enable-background:new 0 0 264 50.1;" xml:space="preserve">
<style type="text/css">
	.st0{fill:#FFFFFF;}
</style>
<path class="st0" d="M76.3,48.3h2v-46h-2V48.3z"/>
<path class="st0" d="M246.8,0.8c-0.4,0-0.7,0.1-1,0.2c-0.2,0.1-0.7,0.4-1.3,0.9c-0.7,0.5-1.4,1-1.9,1.5c-0.4,0.3-0.6,0.7-0.8,1
	c-0.1,0.2-0.2,0.6-0.4,1.2c-0.1,0.2-0.1,0.4-0.1,0.5c-0.2,0.2-0.6,0.3-1,0.4c-0.4,0.1-0.8,0.2-1,0.3l-0.1,0.5h0.6h1.3l-1.4,7.3
	c-0.4,2-0.7,3.4-0.9,4c-0.1,0.3-0.3,0.6-0.4,0.7s-0.3,0.1-0.5,0.1s-0.3,0-0.5-0.2c-0.1-0.1-0.3-0.4-0.5-0.7l-0.3,0
	c-0.1,0.4-0.1,0.7-0.2,1s-0.2,0.7-0.4,1.2c0.2,0.1,0.5,0.1,0.8,0.1c0.3,0,0.7-0.1,1-0.2c0.6-0.4,1.3-0.8,1.9-1.6
	c0.6-0.7,1.1-1.5,1.5-2.5s0.8-2.4,1.3-4.6l1.1-4.8h1h1.5c0.1-0.3,0.2-0.7,0.3-1L246.1,6c-0.2,0.1-0.6,0-1,0.1
	c-0.7,0.1-1.1,0.1-1.3,0.1h-0.2c0.1-0.8,0.4-1.8,0.6-2.6c0.1-0.3,0.2-0.6,0.2-0.8c0.1-0.2,0.2-0.3,0.3-0.3c0.1-0.1,0.3-0.2,0.5-0.2
	s0.5,0.1,0.7,0.2s0.5,0.5,0.8,0.9l0.3,0c0.1-0.8,0.3-1.6,0.5-2.5C247.4,0.8,247.1,0.8,246.8,0.8L246.8,0.8L246.8,0.8z M176.7,2.2
	c-0.6,0-1.1,0-1.7,0.2s-1.1,0.4-1.5,0.7c-0.4,0.3-0.8,0.7-1.1,1.3S172,5.4,172,6c0,0.4,0.1,0.9,0.2,1.3c0.2,0.4,0.3,0.7,0.6,1
	c0.3,0.3,0.7,0.5,1.2,0.7c0.4,0.1,1,0.3,2,0.5c0.7,0.1,1.2,0.4,1.5,0.5s0.5,0.3,0.7,0.6c0.1,0.2,0.2,0.6,0.2,0.9
	c0,0.4-0.1,0.8-0.3,1.1s-0.5,0.6-0.9,0.8c-0.4,0.2-0.9,0.3-1.5,0.3c-0.6,0-1.2-0.1-1.7-0.4c-0.5-0.2-0.9-0.6-1.1-1
	c-0.1-0.6-0.1-1.1-0.1-1.5h-0.7c0,1.4-0.1,2.3-0.2,3c0.6,0.3,1.2,0.6,1.8,0.7s1.2,0.2,1.9,0.2c0.9,0,1.8-0.1,2.5-0.4
	c0.4-0.1,0.9-0.4,1.2-0.8c0.4-0.4,0.7-0.7,1-1.1c0.3-0.6,0.5-1.2,0.5-1.9c0-0.4-0.1-0.8-0.2-1.1c-0.1-0.4-0.2-0.6-0.4-0.8
	c-0.1-0.2-0.4-0.4-0.7-0.6c-0.3-0.2-0.6-0.3-1.1-0.4c-0.2-0.1-0.6-0.1-1.2-0.2S176.3,7,176,7c-0.4-0.1-0.8-0.3-1-0.4
	c-0.2-0.2-0.4-0.3-0.5-0.5c-0.1-0.2-0.2-0.5-0.2-0.9c0-0.5,0.2-1,0.6-1.4c0.4-0.4,1-0.6,1.8-0.6c0.6,0,1,0.1,1.4,0.3
	c0.4,0.2,0.8,0.4,0.9,0.7c0.1,0.2,0,0.7,0.1,1.4h0.7c0-0.6,0.1-1,0.1-1.4s0.1-0.7,0.1-1.1l0-0.2c-0.4-0.2-0.9-0.3-1.5-0.4
	c-0.6-0.1-1.1-0.2-1.8-0.2L176.7,2.2L176.7,2.2z M210.6,2.2c-0.4,0.1-0.7,0.1-1,0.2l-1.8,0.3v0.7c0.4,0,0.7,0,0.8,0
	c0.1,0,0.3,0.2,0.6,0.5c0.4,0.4,0.9,1.1,1.4,1.8c0.6,0.9,1.2,1.9,1.7,2.9c0.2,0.4,0.3,0.7,0.3,0.8v1.6c0,0.4,0,1,0,1.6
	c0,0.3,0,0.4-0.1,0.5s-0.1,0.1-0.2,0.2c-0.1,0.1-0.5,0-1.2,0.1v0.8c0.9-0.1,1.7,0,2.6,0c0.9,0,1.9,0,3,0v-0.8c-0.6,0-1,0-1.1,0
	c-0.1-0.1-0.2-0.1-0.2-0.2c-0.1-0.1-0.1-0.2-0.2-0.6c-0.1-0.4,0-0.8,0-1.6V9.7c0-0.3,0-0.5,0-0.7c0.1-0.2,0.1-0.4,0.2-0.6
	c0.2-0.4,0.7-1.2,1.5-2.4s1.6-2.3,2.2-3.2V2.4h-1.3c-0.1,0.2-0.3,0.5-0.6,1.1c-0.9,1.6-1.4,2.5-1.6,2.8L214.4,8
	c-0.1-0.3-0.5-1.1-1.2-2.3c-0.4-0.8-0.8-1.5-1.2-2.1c-0.3-0.4-0.5-0.7-0.7-0.8S210.9,2.4,210.6,2.2L210.6,2.2L210.6,2.2z M100.9,2.3
	V3c0.6,0,1,0.1,1.1,0.1c0.2,0,0.2,0.1,0.2,0.2s0.1,0.1,0.1,0.3s0,0.4,0,0.8l0.1,2.5v2.8c0,0.8,0,1.4-0.1,1.9
	c-0.1,0.9-0.1,1.3-0.1,1.6c-0.1,0.1,0,0.2-0.1,0.3c-0.1,0.1-0.1,0.1-0.2,0.1c-0.1,0.1-0.5,0-1.2,0.1v0.7c0.9-0.1,1.7,0,2.2,0
	c0.2,0,0.8,0,1.9,0v-0.7h-0.2c-0.2,0-0.4,0-0.8,0c-0.2,0-0.2,0-0.3-0.1s-0.1-0.1-0.1-0.2c-0.1-0.1-0.1-0.6-0.1-1.2
	c-0.1-0.9,0-1.9,0-2.8V5.1c3.3,4.1,5.9,7.2,7.8,9.2c0.5,0.1,1,0.1,1.5,0.2l0.1-0.1c-0.1-0.8-0.1-3.1-0.1-6.9c0-0.5,0-1.2,0-2.2
	c0-1,0.1-1.7,0.2-2c0,0,0-0.1,0.1-0.1c0.2-0.1,0.6-0.2,1.2-0.2V2.4c-0.9,0-1.6,0-2.2,0c-0.6,0-1.2,0-1.9,0v0.7
	c0.8,0,1.2,0.1,1.3,0.2c0.1,0,0.1,0.2,0.2,0.4c0.1,0.6,0.1,2.3,0.1,5.4v2c-0.8-0.8-1.8-1.9-3-3.3c-1.7-2-3.1-3.8-4.2-5.3l-0.8,0.1
	l-1.2,0c-0.3,0-0.8,0-1.6,0L100.9,2.3L100.9,2.3z M118.1,2.3v0.8c0.6,0,1,0.1,1.1,0.1s0.2,0,0.2,0.1s0.1,0.1,0.1,0.2
	c0.1,0.2,0,0.6,0.1,1.3c0,0.3,0,1.1,0,2.2v3.5c0,0.6,0,1.2-0.1,1.9c-0.1,0.4,0,0.7,0,0.8s-0.1,0.1-0.1,0.1s-0.2,0.1-0.2,0.1
	c-0.1,0-0.4,0-1,0v0.8c0.7-0.1,1.6,0,2.5,0c1.1,0,2.1,0,3,0v-0.8c-0.6,0-0.9,0-1,0s-0.2-0.1-0.2-0.1s-0.1-0.1-0.1-0.2
	c-0.1-0.1-0.1-0.6-0.1-1.2v-1.5V7c0-0.1,0-0.8,0-2.2c0-0.4,0-0.7,0-0.8c0-0.2,0.1-0.5,0.1-0.6c0,0,0-0.1,0.1-0.1
	c0.1,0,0.2-0.1,0.2-0.1c0.1,0,0.4-0.1,1-0.1V2.4c-0.9,0-1.9,0.1-2.9,0.1c-0.9,0-1.8,0-2.5-0.1L118.1,2.3L118.1,2.3z M127,2.3v0.8
	c0.6,0,0.9,0.1,1,0.2c0.1,0,0.3,0.3,0.5,0.8c0.2,0.5,0.8,1.8,1.8,4l1.2,2.9c0.4,1.1,0.9,2.2,1.4,3.4h1.3c0.4-0.9,1-2.7,2-5l1.2-2.8
	l0.6-1.4c0.5-1.2,0.8-1.8,1-2c0.1,0,0.4-0.2,1-0.2V2.3l-1.8,0l-2.2,0v0.8c0.2,0,0.6,0,1,0c0.1,0,0.2,0.1,0.3,0.1s0.1,0,0.1,0.1
	c0.1,0,0.1,0.1,0.1,0.2v0.2c-0.1,0.2-0.2,0.7-0.5,1.4c-0.4,1-0.6,1.5-0.6,1.6l-1.9,4.7l-2.2-5.3c0-0.1,0-0.1,0-0.1s-0.1-0.3-0.3-0.9
	c-0.4-0.9-0.6-1.4-0.6-1.6c0-0.1,0.1-0.2,0.1-0.2s0.1-0.1,0.2-0.1c0.2,0,0.5-0.1,1-0.1V2.4l-3,0.1C129.2,2.4,128.4,2.4,127,2.3
	L127,2.3L127,2.3z M150.6,2.3l-1.8,0c-0.9,0-1.8,0.1-2.6,0.1h-1.1h-2v0.6c0.6,0,1.1,0.1,1.2,0.2c0.1,0,0.1,0,0.2,0.1
	c0.1,0.2,0.1,0.6,0.2,1.2v1.7v3.8c0,0.4,0,1.2-0.1,2.2c0,0.6,0,0.9-0.1,1.1c-0.2,0.1-0.5,0.4-0.8,0.5v0.5c1.8-0.1,2.7,0,2.8,0
	c0.5,0,1.4,0,2.8,0l1.4,0c0.6,0,1.2,0,1.5,0l0.1-0.1c0-0.8,0.1-1.6,0.2-2.8h-0.7c-0.1,0.8-0.2,1.2-0.3,1.5c-0.1,0.1-0.1,0.1-0.1,0.1
	c-0.1,0.1-0.4,0.2-0.9,0.2c-0.5,0.1-1.1,0-1.7,0c-0.6,0-1.2,0-1.6,0c0-0.3,0-0.6,0-1V8.7c0.4-0.1,0.8-0.1,1.4-0.1s1.1,0.1,1.5,0.1
	c0.2,0.1,0.3,0.1,0.3,0.2c0.1,0.1,0.2,0.5,0.2,1.2h0.7l0-1.8l0-1.8h-0.7c0,0.5,0,0.8-0.1,1.1c-0.1,0.1-0.1,0.2-0.1,0.2s-0.2,0-0.5,0
	c-0.8,0-1.3,0-1.4,0c-0.4,0-0.8,0-1.2,0V6c0-1,0-1.8,0.1-2.5c0.6,0,1,0,1.5,0c0.6,0,1.1,0,1.7,0.1c0.4,0,0.6,0.1,0.7,0.2
	c0.1,0,0,0.1,0.1,0.2c0.1,0.2,0.1,0.6,0.1,1.2h0.6c0.1-0.8,0.1-1.2,0.1-1.2l0.1-1.2l0-0.1c-0.1,0-0.2,0-0.3,0c-0.6,0-1.1,0-1.2,0
	L150.6,2.3L150.6,2.3z M162.8,2.3c-0.4,0-1.1,0-1.8,0c-0.4,0-0.9,0.1-1.5,0.1h-1.6c-0.8,0-1.2-0.1-1.3-0.1v0.7
	c0.7,0,1.1,0.1,1.2,0.2l0.1,0.1c0.1,0.2,0.1,0.6,0.1,1.3l0,1.8v3.1l-0.1,2.5c0,0.4-0.1,0.8-0.1,1c0,0.1,0,0.2-0.1,0.2
	s-0.1,0.1-0.2,0.1c-0.1,0.1-0.5,0-1.1,0.1v0.8c0.8-0.1,1.5,0,2.4,0c1,0,2,0,3,0v-0.8c-0.6,0-0.9,0-1,0c-0.1,0-0.2,0-0.2-0.1
	l-0.1-0.1c-0.1-0.1-0.1-0.3-0.1-0.6c0-0.1,0-0.9,0-2c0-0.9,0-1.9,0-2.7c0-0.6,0-1.6,0-3.2c0-0.7,0-1.2,0-1.4c0.2,0,0.6-0.1,0.8-0.1
	c0.6,0,1.1,0.1,1.2,0.2c0.4,0.2,0.7,0.4,0.9,0.8s0.4,0.7,0.4,1.3c0,0.5-0.1,1-0.3,1.4s-0.6,0.7-0.9,0.9c-0.4,0.2-0.8,0.3-1.5,0.2
	L161,8.4c0.2,0.1,0.4,0.3,0.5,0.6c0.4,0.5,0.8,1.1,1.3,2l1.8,3c0.1,0.2,0.2,0.4,0.2,0.5c0.4,0,0.9,0,1.4,0c0.4,0,1,0,1.9,0v-0.8
	c-0.2,0-0.4,0-0.5,0s-0.2-0.1-0.3-0.2s-0.3-0.4-0.8-1c-0.1-0.1-0.2-0.3-0.6-0.9l-1.3-1.9c-0.1-0.1-0.1-0.1-0.1-0.2s-0.1-0.2-0.3-0.5
	c-0.2-0.2-0.4-0.5-0.5-0.8c0.9-0.4,1.6-0.8,2-1.3s0.7-1.2,0.7-1.9c0-0.6-0.2-1.1-0.5-1.5s-0.7-0.6-1.2-0.8s-1.1-0.2-2-0.2L162.8,2.3
	L162.8,2.3z M184.9,2.3v0.8c0.6,0,1,0.1,1.1,0.1s0.2,0,0.2,0.1c0.1,0,0,0.1,0.1,0.2c0.1,0.2,0.1,0.6,0.1,1.3V7v3.5
	c0,0.6,0,1.2,0,1.9c-0.1,0.4,0,0.7-0.1,0.8c0,0.1-0.1,0.1-0.1,0.1s-0.1,0.1-0.2,0.1c-0.1,0-0.4,0-1,0v0.8c0.7-0.1,1.6,0,2.5,0
	c1.1,0,2.1,0,3,0v-0.8c-0.6,0-0.9,0-1,0s-0.2-0.1-0.2-0.1s-0.1-0.1-0.1-0.2c-0.1-0.1-0.1-0.6-0.1-1.2v-1.5V7c0-0.1,0-0.8,0-2.2
	c0-0.4,0-0.7,0.1-0.8c0-0.2,0-0.5,0.1-0.6c0,0,0-0.1,0.1-0.1c0.1,0,0.1-0.1,0.2-0.1c0.1,0,0.4-0.1,1-0.1V2.4c-0.9,0-1.9,0.1-2.9,0.1
	c-0.9,0-1.8,0-2.5-0.1L184.9,2.3L184.9,2.3z M193.9,2.3l-0.1,0.1c0.1,0.3,0,0.5,0.1,0.8c0,0.2,0,0.8,0,2h0.7c0-0.5,0.1-1,0.2-1.4
	c0.1-0.2,0-0.2,0.1-0.3s0.1,0,0.3-0.1c0.4,0,1,0,1.7,0h1.2v2.3v5.1c0,1.2,0,2-0.1,2.2c-0.1,0.1-0.1,0.3-0.2,0.4
	c-0.1,0.1-0.6,0.1-1.2,0.1v0.7c1.1-0.1,2,0,2.8,0c0.8,0,1.7,0,2.8,0v-0.7c-0.7,0-1.1,0-1.2-0.1c-0.1-0.1-0.2-0.2-0.2-0.4
	c-0.1-0.2-0.1-1-0.1-2.2V5.8c0-1.3,0-2.1,0-2.3h1.2c0.6,0,1.2,0,1.7,0c0.1,0,0.2,0,0.2,0c0.1,0,0.1,0.1,0.1,0.3
	c0.1,0.4,0.1,0.9,0.1,1.3h0.7c0-1.2,0-1.9,0.1-1.9c0-0.2,0-0.6,0.1-0.9l-0.1-0.1c-0.2,0-0.6,0-0.8,0h-2.8h-3.5h-2.8
	C194.5,2.4,194.2,2.3,193.9,2.3L193.9,2.3L193.9,2.3z M38,2.4V10h2.9v30.2H38V48h14.4v-7.7h-2.8V28.6h10.8v-7.7H49.6V10h11.8v4.2
	h7.8V2.4L38,2.4L38,2.4L38,2.4z M84.6,2.4V3l1.2,0.2l0.2,0.2C86,3.5,86,3.7,86,3.9c0.1,0.6,0,1.3,0,2.1v2.2v1.6c0,0.9,0,1.5,0,1.7
	c0.1,0.4,0.2,0.7,0.4,1c0.2,0.4,0.4,0.7,0.8,1c0.3,0.3,0.8,0.5,1.3,0.7c0.8,0.2,1.6,0.3,2.4,0.3c0.8,0,1.4-0.1,2-0.2
	c0.6-0.1,1-0.4,1.4-0.7c0.4-0.3,0.8-0.6,1-1c0.2-0.4,0.4-0.8,0.5-1.4c0.1-0.6,0.2-1.1,0.2-1.6v-2c0-0.6,0-1.4,0-2.4
	c0.1-1,0.1-1.6,0.1-1.8s0.1-0.2,0.2-0.2c0.2-0.1,0.4-0.1,1-0.1V2.4l-1.9,0.1h-0.2c-0.2,0-0.8,0-1.8-0.1v0.7c0.7,0,1.1,0.1,1.2,0.2
	c0.1,0,0.2,0.1,0.2,0.2c0.1,0.2,0.1,0.6,0.1,1.3v2.8v1.8c0,1.2-0.1,2.1-0.3,2.5c-0.2,0.4-0.6,0.8-1,1s-1.1,0.4-1.9,0.4
	c-0.7,0-1.3-0.1-1.7-0.3s-0.8-0.4-1-0.8c-0.2-0.4-0.4-0.7-0.4-1.3c0-0.2,0-0.9,0-1.9v-1v-2c0-1.2,0.1-1.9,0.2-2.3
	c0.1-0.2,0.1-0.2,0.1-0.3C89,3.1,89.4,3.1,90,3.1V2.4h-0.4l-1.1,0.1h-1.2L84.6,2.4L84.6,2.4z M22.5,2.4v7.6h2.8v18.2
	c0,7.6-0.9,11.2-6.3,11.2s-6.3-3.7-6.3-11.2V10.1h2.8V2.5H0.9V10h2.8v20.7c0,4.5,0,8.2,2.2,11.6c2.4,3.8,6.7,6.2,13,6.2
	C30,48.5,34,42.7,34,30.7V10h2.9V2.4L22.5,2.4L22.5,2.4z M233.9,5.8c-0.7,0-1.3,0.2-1.9,0.4s-1.2,0.6-1.7,1s-0.8,0.7-1,1
	c-0.3,0.4-0.6,1-0.8,1.9c-0.2,0.9-0.4,1.7-0.4,2.5c0,0.6,0.1,1.1,0.2,1.6c0.2,0.5,0.5,0.8,1,1.1s1,0.4,1.8,0.4
	c0.6,0,1.2-0.1,1.8-0.3s1.1-0.5,1.7-0.9c0.6-0.4,1-0.7,1.2-1c0.4-0.4,0.7-1.1,1-2s0.5-1.7,0.5-2.6c0-0.4-0.1-0.9-0.2-1.3
	s-0.3-0.7-0.5-1c-0.2-0.2-0.6-0.5-1-0.6c-0.4-0.2-1-0.2-1.5-0.2L233.9,5.8L233.9,5.8z M233.2,6.7c0.5,0,0.9,0.2,1.2,0.5
	c0.3,0.3,0.5,0.9,0.5,1.8c0,0.9-0.2,2-0.4,3c-0.2,0.7-0.4,1.2-0.6,1.6c-0.2,0.4-0.5,0.7-0.8,0.9s-0.6,0.3-1,0.3
	c-0.6,0-1-0.2-1.3-0.5c-0.3-0.4-0.5-0.9-0.5-1.8c0-0.9,0.2-1.9,0.5-3s0.6-1.9,1-2.2C232.2,6.9,232.7,6.7,233.2,6.7z M146,19.2
	c-2.5,0-4.8,0.3-6.9,1.1c-1.6,0.5-3.1,1.5-4.5,2.8s-2.5,2.9-3.2,4.7s-1.1,4-1.1,6.5c0,3.2,0.6,5.9,1.9,8s3,3.8,5.2,4.9
	c2.2,1.1,4.8,1.6,7.8,1.6c2.8,0,5.4-0.4,7.6-1.3c1.6-0.7,3-1.7,4.3-2.9s2.2-2.7,2.8-4.3c0.9-2.2,1.3-4.5,1.3-7.1
	c0-1.5-0.1-2.9-0.4-4.2s-0.8-2.4-1.4-3.5s-1.4-2-2.6-3s-2.5-1.7-4-2.3c-2-0.7-4.3-1-6.7-1L146,19.2L146,19.2z M245.9,19.5
	L245.9,19.5l-1.8,4.7l-5.3,13.1c-1,2.5-1.7,4.2-2,5c-0.8,1.8-1.3,2.8-1.4,3.1c-0.1,0.3-0.3,0.5-0.4,0.6c-0.1,0.2-0.4,0.2-0.6,0.3
	c-0.2,0-0.8,0.1-1.9,0.2v1.7l4.6-0.2l4.7,0.2v-1.7c-1.6,0-2.6-0.2-2.9-0.4c-0.2-0.2-0.3-0.3-0.3-0.7c0-0.5,0.4-1.6,1-3.5l0.9-2.5
	H251l1.8,4.5c0.3,0.8,0.4,1.3,0.4,1.6c0,0.2-0.1,0.5-0.3,0.6c-0.2,0.1-1.1,0.2-2.8,0.2v1.7l7.2-0.1l5.6,0.1v-1.7
	c-0.4,0-0.7-0.1-0.9-0.1c-0.6,0-1.1-0.1-1.2-0.1s-0.3-0.2-0.4-0.2s-0.2-0.3-0.4-0.6l-0.8-1.8l-1.2-2.8l-9.1-21.2L245.9,19.5
	L245.9,19.5z M101.6,19.5L101.6,19.5l-9.8,0.3l-7.2-0.1v1.7c1.3,0.1,2.2,0.2,2.4,0.2c0.3,0,0.4,0.2,0.5,0.2c0.1,0,0.2,0.2,0.2,0.3
	c0.1,0.5,0.2,1.2,0.2,2.2c0.2,3.6,0.2,5.5,0.2,5.7v8.5c0,0.7,0,1.9-0.1,3.5c-0.1,1.7-0.2,2.7-0.2,3c-0.1,0.5-0.1,0.9-0.3,1
	c-0.1,0.1-0.2,0.2-0.3,0.2c-0.2,0.1-1.2,0.2-2.8,0.2v1.7c2.5-0.1,4.3-0.1,5.5-0.1l8,0.1v-1.6c-1.9-0.2-3-0.2-3.2-0.3
	s-0.4-0.2-0.5-0.4c-0.2-0.2-0.2-1-0.3-2.2c-0.1-1.3-0.1-3.5-0.1-6.8v-2.2c0.8,0,1.3,0,1.7,0c2.2,0,3.8,0.1,4.8,0.2
	c0.4,0.1,0.7,0.2,0.8,0.4c0.2,0.3,0.3,1.3,0.3,3h1.8v-8.8h-1.8c-0.1,1.2-0.1,1.9-0.2,2.3c-0.1,0.2-0.2,0.4-0.3,0.5
	c-0.4,0.2-1.5,0.2-3.3,0.2c-0.6,0-1.8-0.1-3.5-0.2v-2.8c0-3.5,0-6,0.2-7.3c0.4,0,1.1,0,2.2-0.1s1.7,0,1.9,0c1.2,0,2.2,0.1,3.1,0.2
	s1.5,0.3,1.7,0.5c0.1,0,0.1,0.1,0.1,0.2c0.1,0.1,0.1,0.5,0.2,1.1c0.1,1.1,0.1,1.8,0.1,2.2h1.7c0-0.9,0.1-1.9,0.2-3.1s0.2-2.2,0.4-3
	l-0.1-0.3C104.3,19.6,103,19.5,101.6,19.5L101.6,19.5z M176.1,19.6c-1.1,0-2.5,0.1-4.2,0.2c-1,0-2.2,0.1-3.6,0.1c-1.6,0-3,0-3.9,0
	c-1.9,0-2.9-0.1-3.2-0.1v1.6c1.6,0.1,2.6,0.3,3,0.4c0.1,0.1,0.3,0.2,0.3,0.3c0.2,0.4,0.2,1.4,0.2,3.1l0.1,4.3V37l-0.2,6
	c-0.1,1-0.1,1.9-0.2,2.4c-0.1,0.3-0.1,0.5-0.2,0.6c-0.1,0.1-0.2,0.1-0.3,0.2c-0.3,0.1-1.2,0.2-2.8,0.2v1.8C163,48,165,48,167.1,48
	c2.4,0,4.7,0,7.1,0.1v-1.8c-1.3,0-2.1,0-2.3-0.1s-0.4-0.2-0.6-0.2c-0.1-0.1-0.2-0.2-0.2-0.3c-0.1-0.2-0.2-0.8-0.2-1.5
	c-0.1-0.4-0.1-2-0.1-4.8c-0.1-2.3,0-4.4,0-6.5c0-1.3,0.1-3.9,0.2-7.7c0.1-1.7,0.1-2.8,0.1-3.3c0.6-0.1,1.3-0.2,2-0.2
	c1.4,0,2.5,0.1,3,0.3c0.9,0.4,1.6,0.9,2.2,1.8s0.9,1.8,0.9,3.1s-0.3,2.3-0.9,3.3c-0.6,1-1.3,1.7-2.1,2.1c-0.9,0.4-2.1,0.5-3.7,0.5
	l-0.2,0.6c0.4,0.3,0.8,0.8,1.2,1.4c0.9,1.2,2,2.8,3.2,4.8l4.3,7.2c0.2,0.5,0.4,0.8,0.5,1.1c1.1,0,2.1-0.1,3.2-0.1
	c0.9,0,2.5,0,4.6,0.1v-1.8c-0.6,0-1.1,0-1.3-0.1c-0.2-0.1-0.4-0.2-0.6-0.5c-0.2-0.2-0.9-1.1-1.9-2.4c-0.1-0.1-0.5-0.8-1.3-2
	l-3.2-4.7c-0.1-0.1-0.1-0.2-0.2-0.3c-0.1-0.2-0.4-0.5-0.8-1.2c-0.4-0.7-0.8-1.2-1.1-1.8c2.1-0.8,3.7-1.9,4.7-3.2s1.5-2.9,1.5-4.5
	c0-1.4-0.4-2.5-1.1-3.5c-0.8-1-1.6-1.6-2.7-1.9s-2.7-0.5-4.8-0.5L176.1,19.6L176.1,19.6z M221.2,19.6c-1.1,0-2.5,0-4.2,0.1
	c-2.4,0.1-4.1,0.1-4.9,0.1l-7.4-0.1v1.6c1.4,0.2,2.3,0.3,2.5,0.4c0.2,0,0.4,0.1,0.5,0.2c0.1,0,0.1,0.1,0.2,0.3
	c0.2,0.5,0.2,1.7,0.2,3.6c0.1,3.5,0.1,6.1,0.1,7.9v3.3c0,4.1-0.1,7.1-0.2,8.9c-0.4,0.3-0.9,0.6-1.4,0.9c-0.2,0.2-0.5,0.3-0.6,0.4v1
	l6.2-0.2l6.1,0.2c2.8,0,5.1-0.3,7-0.9c1.9-0.6,3.8-1.6,5.4-3c1.6-1.3,2.9-3,3.9-5.1c0.9-2,1.4-4.4,1.4-7c0-2-0.3-3.9-1-5.6
	c-0.4-1-0.9-2-1.6-2.9c-0.8-0.9-1.7-1.6-2.7-2.3s-2.3-1.1-3.8-1.4s-3.4-0.5-5.8-0.5L221.2,19.6L221.2,19.6z M107.2,19.7L107.2,19.7
	c0,0.1,0,0.1,0,0.1C107.2,19.8,107.2,19.7,107.2,19.7z M107.2,19.8v1.7c1.8,0,2.8,0.2,3.2,0.4c0.2,0.1,0.2,0.2,0.3,0.4
	c0.1,0.4,0.2,1.8,0.2,4.4c0,1,0,3.7,0,8c0,2.9,0,5.4-0.1,7.5c-0.1,2.1-0.1,3.3-0.2,3.7c0,0.1,0,0.2-0.1,0.2
	c-0.1,0.1-0.2,0.2-0.5,0.4c-0.7,0.4-1.2,0.6-1.5,0.8v1.1c2.7-0.1,4.7-0.2,6.1-0.2c0.9,0,2.4,0,4.6,0.1c2.9,0,4.6,0.1,4.8,0.1
	c1.8,0,3-0.1,3.8-0.1c0.4,0,0.8-0.1,1.2-0.2c0-0.2,0.1-1,0.2-2.3l0.5-4.1c0,0,0-0.3,0.1-0.7h-1.7c-0.3,1.3-0.5,2.5-0.8,3.5
	c-0.1,0.4-0.3,0.7-0.4,0.8s-0.4,0.2-1,0.2c-1.6,0.2-3.3,0.4-5.4,0.4c-0.7,0-2-0.1-3.9-0.2c0-0.4,0-1.6,0-3.5c0-1.9,0-3.8,0-5.8v-5.8
	c0-2.3,0-4.2,0.1-5.7c0.1-1.5,0.2-2.4,0.2-2.5c0.1-0.2,0.2-0.3,0.4-0.4c0.3-0.2,1.2-0.3,2.8-0.4v-1.8c-2.2,0.1-4.6,0.2-7,0.2
	C110.9,19.9,108.9,19.9,107.2,19.8L107.2,19.8z M190.7,19.7v1.8c1.5,0,2.4,0.1,2.6,0.1s0.4,0.1,0.5,0.2s0.2,0.3,0.2,0.4
	c0.1,0.5,0.1,1.5,0.2,3.2c0.1,0.8,0,2.5,0,5.2v8.5c0,1.4-0.1,2.9-0.2,4.5c-0.1,1.1-0.1,1.8-0.1,1.9c-0.1,0.1-0.1,0.2-0.2,0.3
	s-0.3,0.2-0.6,0.2c-0.2,0-1,0.1-2.4,0.1v1.8c1.7-0.1,3.6-0.2,5.8-0.2c2.5,0,4.9,0.1,7.1,0.2v-1.8c-1.4,0-2.1,0-2.4-0.1
	s-0.5-0.2-0.6-0.2c-0.1-0.1-0.2-0.3-0.3-0.5c-0.1-0.4-0.2-1.3-0.2-2.7l0-3.8v-8.2c0-0.2,0-2.1,0.1-5.4c0-1,0.1-1.6,0.1-2
	c0.1-0.6,0.1-1.1,0.2-1.3c0.1-0.1,0.1-0.3,0.2-0.4s0.3-0.1,0.6-0.2c0.2,0,1-0.1,2.4-0.2v-1.8c-2.2,0.1-4.5,0.1-7.1,0.1
	C194.4,19.9,192.4,19.8,190.7,19.7L190.7,19.7L190.7,19.7z M145.6,21.5c1.8,0,3.2,0.3,4.2,0.9s1.9,1.5,2.8,2.6
	c0.8,1.1,1.3,2.4,1.8,4c0.4,1.6,0.7,3.3,0.7,5.2c0,2.8-0.4,5.1-1.2,7.1s-1.8,3.4-3.2,4.2s-2.9,1.2-4.6,1.2c-1.9,0-3.4-0.4-4.8-1.3
	s-2.5-2.3-3.4-4.4c-0.9-2-1.3-4.7-1.3-7.9c0-2.2,0.3-4.2,1-6c0.6-1.8,1.6-3.2,3-4.1C142,22,143.7,21.5,145.6,21.5L145.6,21.5
	L145.6,21.5z M217.8,21.8c2.8,0,4.9,0.2,6.2,0.8c1.4,0.5,2.5,1.3,3.4,2.4c0.9,1.1,1.6,2.3,2,3.8s0.6,3,0.6,4.5
	c0,1.7-0.2,3.3-0.6,4.8c-0.4,1.5-1,2.7-1.7,3.8c-0.7,1-1.4,1.9-2.2,2.4s-1.6,1-2.7,1.2c-1.4,0.4-3,0.6-4.8,0.6
	c-1.1,0-2.3-0.1-3.6-0.3c-0.1-1.3-0.2-4-0.2-8V33c0-5.3,0.1-8.9,0.2-10.8C215.6,22,216.7,21.9,217.8,21.8L217.8,21.8L217.8,21.8z
	 M245.7,26.6l4.4,10.6c-1.2,0-2.6,0-4.2,0s-3,0-4.3,0L245.7,26.6L245.7,26.6z"/>
</svg>
